<svg version="1" xmlns="http://www.w3.org/2000/svg" width="682.667" height="682.667" viewBox="0 0 512.000000 512.000000"><path d="M237.8.5c-.2.1-3.9.5-8.2.9-4.4.4-8.2.9-8.5 1.1-.4.2-3.4.7-6.6 1-11.7 1.4-47.2 11.1-49.9 13.6-.6.5-1.6.9-2.3.9-.8 0-4.9 1.6-9.1 3.5C118 37.6 91.4 56.9 65.5 85.2c-3.3 3.6-7.1 8-8.5 9.8-1.4 1.8-2.9 3.8-3.5 4.4-8.2 9.2-24.6 36.9-32.3 54.6-6.1 14.2-13.1 35.1-14.6 44.3-.3 1.5-.7 3.5-1 4.5-.3.9-.7 3.4-1.1 5.6-.3 2.1-.7 4.1-.9 4.5-.4.6-1.2 7.2-2.6 20.1-.8 8.5-.5 45.4.5 51.5 3 19 3.9 24.1 5.7 31.5 2.8 11.8 9 30.3 13.8 41.5l4.2 9.4-1.7 6.3c-1.8 6.7-1.8 7-3.4 16.3-2.1 12.3-2.5 18.4-2.5 35 0 18.8.3 21.1 3.9 37.2l1.8 8.3h40.6l1.1-4.3c.6-2.3 1.3-5 1.6-6 .5-1.5 2.1-1.7 16.2-1.7h15.8l6.9 5.1c27.9 20.2 63.7 36.3 95.5 42.8 12.2 2.5 14.3 2.9 21 3.7 3 .3 7.6 1 10.3 1.4 4.8.7 47.1.5 51.7-.4 1.4-.2 4.5-.7 7-1 2.5-.4 9.2-1.6 15-2.7 5.8-1.2 11.5-2.3 12.8-2.5 3.8-.7 32-10.3 37-12.5 17.2-7.8 35.6-18.1 49.3-27.9l8.4-6 15.7.1 15.8.1.9 3.6c.5 2.1 1.1 4.6 1.3 5.7.3 1.9 1.2 2 20.9 2.3l20.6.2 1.8-8.2c2.4-10.5 2.4-10.5 3.1-15.3.9-6.1 1.2-38.3.3-43.4-.4-2.6-1.2-8-1.9-12.1-.6-4.1-2-11.2-3.1-15.8l-2-8.2 4.9-11.8c8.6-20.1 15.4-44.8 17.8-64.2 2.8-22.5 2.6-53.1-.5-73.5-9.6-63.2-43.4-121.5-93.6-161.6-7.8-6.3-19.9-14.7-29-20.1-6.6-3.9-29.8-15.8-31-15.8-.4 0-2.1-.6-3.8-1.4C338 12.4 309.6 4.8 291 2.4c-2.5-.3-5.6-.8-7-1-2.7-.6-45.6-1.4-46.2-.9z"/></svg>